<svg width="181" height="148" viewBox="0 0 181 148" fill="none" xmlns="http://www.w3.org/2000/svg">
<path d="M177.983 36.3841C169.058 22.2417 142.387 21.6105 112.786 33.0217C113.046 17.1926 108.355 5.12863 98.9418 1.26931C82.1118 -5.63322 56.5688 16.3076 41.8873 50.2798C33.1409 70.5158 30.2217 90.4581 32.8504 104.731C35.2669 120.07 45.6628 129.701 50.5592 132.599C57.2242 137.379 66.2424 141.554 76.5675 144.256C100.509 150.513 122.433 146.462 125.535 135.207C127.084 129.581 123.639 123.219 116.814 117.484C120.869 115.486 124.939 113.273 128.986 110.85C167.457 87.8139 189.396 54.4765 177.98 36.3913L177.983 36.3841ZM80.3319 101.855C62.895 98.7716 47.573 101.263 41.3771 108.035C41.716 93.4215 58.1848 73.0694 83.3517 58.0021C89.1454 54.5345 94.9837 51.5928 100.71 49.1953C100.092 58.5788 97.4412 69.4204 92.6975 80.389C89.1863 88.5103 84.9267 95.7864 80.3319 101.851V101.855ZM83.0836 107.165C90.6161 109.356 97.1843 112.486 102.118 116.004C85.2581 123.741 69.061 126.857 57.6226 124.905C65.7993 122.95 74.7542 116.632 83.0836 107.165ZM45.2979 60.951C57.0529 33.758 77.1893 16.0646 90.281 21.4328C95.9109 23.7397 99.3178 29.9386 100.439 38.4153C96.1827 40.49 91.9119 42.8042 87.6597 45.3468C61.1971 61.1904 42.5612 81.9088 37.2143 99.1851C36.6558 88.4233 39.3143 74.7923 45.2942 60.951H45.2979ZM47.7145 119.911C46.482 119.407 45.3575 118.714 44.341 117.854C44.099 117.535 43.8719 117.205 43.6596 116.868C42.9261 115.707 42.375 114.463 41.999 113.146C44.4713 105.137 59.7598 102.04 77.2378 105.703C67.1919 117.426 56.0327 123.32 47.7182 119.911H47.7145ZM111.345 131.514C108.932 140.27 91.439 143.306 72.2707 138.293C63.9599 136.121 56.7029 132.795 51.3411 129.008C64.9913 133.506 85.9581 130.781 108.146 121.438C110.987 124.84 112.22 128.333 111.345 131.511V131.514ZM115.496 108.946C113.5 110.139 111.501 111.271 109.501 112.341C103.455 108.746 96.0449 105.649 87.7975 103.491C87.3432 103.371 86.8889 103.258 86.4347 103.146C92.5672 95.3802 98.2343 85.9205 102.833 75.2747C107.301 64.9372 110.246 54.6796 111.71 45.2126C131.887 39.0609 149.071 40.3885 155.188 50.0839C164.065 64.1501 146.293 90.5053 115.493 108.946H115.496Z" fill="#EDECF2"/>
<path d="M12.6411 138.779C19.6226 138.779 25.2823 133.266 25.2823 126.465C25.2823 119.664 19.6226 114.151 12.6411 114.151C5.65963 114.151 0 119.664 0 126.465C0 133.266 5.65963 138.779 12.6411 138.779Z" fill="#EDECF2"/>
</svg>
