<svg width="24" height="24" viewBox="0 0 24 24" fill="none" xmlns="http://www.w3.org/2000/svg">
<path fill-rule="evenodd" clip-rule="evenodd" d="M15.3177 3.59872C16.4408 3.37265 17.6068 3.5298 18.6312 4.04531L18.7933 4.12686C20.1403 4.80473 21.1646 5.99339 21.6409 7.43136L21.6903 7.58041C22.0026 8.52344 22.081 9.52905 21.9186 10.5095L21.8929 10.6647C21.6639 12.0479 21.0111 13.3245 20.0259 14.316L17.5167 16.8414C17.5053 16.8529 17.4936 16.864 17.4815 16.8748L12.5473 21.2889C12.2358 21.5677 11.7662 21.5677 11.4547 21.2889L6.52045 16.8748C6.50841 16.864 6.49669 16.8529 6.4853 16.8414L3.97607 14.316C2.99087 13.3245 2.33813 12.0479 2.10907 10.6647L2.08337 10.5095C1.921 9.52905 1.99939 8.52344 2.31173 7.58041L2.36109 7.43136C2.83735 5.99339 3.86167 4.80473 5.20873 4.12686L5.37078 4.04532C6.39522 3.5298 7.56116 3.37265 8.68427 3.59872C9.68137 3.79942 10.5972 4.29268 11.3162 5.01633L12.001 5.70557L12.6858 5.01633C13.4048 4.29268 14.3206 3.79942 15.3177 3.59872ZM17.8957 5.52588C17.1984 5.17498 16.4047 5.06802 15.6403 5.22189C14.9616 5.35851 14.3382 5.69425 13.8488 6.18682L12.5825 7.4613C12.2613 7.78452 11.7407 7.78452 11.4195 7.4613L10.1532 6.18682C9.66374 5.69425 9.04041 5.35851 8.36172 5.22189C7.59725 5.06802 6.80362 5.17498 6.10632 5.52588L5.94427 5.60742C4.98737 6.08896 4.25973 6.93334 3.92141 7.95482L3.87205 8.10387C3.64455 8.79076 3.58745 9.52323 3.70572 10.2374L3.73142 10.3926C3.90412 11.4354 4.39626 12.3979 5.13906 13.1455L7.63121 15.6537L12.001 19.563L16.3708 15.6537L18.8629 13.1455C19.6057 12.3979 20.0979 11.4354 20.2706 10.3926L20.2963 10.2374C20.4145 9.52323 20.3574 8.79076 20.1299 8.10387L20.0806 7.95482C19.7423 6.93334 19.0146 6.08896 18.0577 5.60742L17.8957 5.52588Z" fill="#E0E0E0"/>
</svg>
