<svg width="14" height="13" viewBox="0 0 14 13" fill="none" xmlns="http://www.w3.org/2000/svg">
<path fill-rule="evenodd" clip-rule="evenodd" d="M9.21114 0.400426C9.95988 0.249713 10.7372 0.35448 11.4201 0.698153L11.5282 0.75252C12.4262 1.20443 13.1091 1.99687 13.4266 2.95552L13.4595 3.05489C13.6677 3.68357 13.72 4.35398 13.6117 5.00765L13.5946 5.11111C13.4419 6.03325 13.0067 6.88431 12.3499 7.54531L10.6771 9.22891C10.6695 9.23658 10.6617 9.24398 10.6537 9.25118L7.36421 12.1939C7.15654 12.3798 6.84348 12.3798 6.63581 12.1939L3.34632 9.25118C3.3383 9.24398 3.33048 9.23658 3.32289 9.22891L1.65007 7.54531C0.993271 6.88431 0.55811 6.03325 0.405404 5.11111L0.38827 5.00765C0.280024 4.35398 0.332284 3.68357 0.54051 3.05489L0.573417 2.95552C0.890924 1.99687 1.5738 1.20443 2.47184 0.75252L2.57988 0.69816C3.26284 0.35448 4.04013 0.249713 4.78887 0.400426C5.4536 0.534226 6.06414 0.863066 6.54348 1.3455L7.00001 1.80499L7.45654 1.3455C7.93588 0.863066 8.54641 0.534226 9.21114 0.400426ZM10.9298 1.6852C10.4649 1.45127 9.93581 1.37996 9.42621 1.48254C8.97374 1.57362 8.55814 1.79745 8.23188 2.12583L7.38768 2.97548C7.17354 3.19096 6.82648 3.19096 6.61234 2.97548L5.76814 2.12583C5.44185 1.79745 5.0263 1.57362 4.57384 1.48254C4.06419 1.37996 3.5351 1.45127 3.07024 1.6852L2.9622 1.73956C2.32427 2.06059 1.83918 2.62351 1.61363 3.30449L1.58072 3.40386C1.42906 3.86179 1.39099 4.3501 1.46984 4.82625L1.48697 4.92971C1.6021 5.62491 1.9302 6.26658 2.4254 6.76498L4.08683 8.43711L7.00001 11.0433L9.91321 8.43711L11.5746 6.76498C12.0698 6.26658 12.3979 5.62491 12.5131 4.92971L12.5302 4.82625C12.609 4.3501 12.5709 3.86179 12.4193 3.40386L12.3864 3.30449C12.1609 2.62351 11.6757 2.06059 11.0378 1.73956L10.9298 1.6852Z" fill="#121212"/>
</svg>
