<svg width="40" height="40" viewBox="0 0 40 40" fill="none" xmlns="http://www.w3.org/2000/svg">
<rect width="40" height="40" fill="white"/>
<path d="M13.3493 15.7843C15.7786 10.8002 19.6979 7.70959 22.1033 8.882C24.5087 10.0544 24.4888 15.0455 22.0595 20.0296C19.6302 25.0136 15.7108 28.1034 13.3054 26.931C10.9006 25.7581 10.9203 20.768 13.3493 15.7843ZM20.6683 11.8403C18.7975 10.9285 15.7041 13.424 13.7593 17.4139C11.8145 21.404 11.7548 25.3779 13.6256 26.2898C15.4965 27.2013 18.5898 24.7061 20.5345 20.7162C22.4792 16.7263 22.5389 12.7523 20.6683 11.8403Z" fill="#121212"/>
<path d="M19.744 15.1802C25.2623 11.5274 31.1644 10.7254 32.9273 13.3885C34.6901 16.0517 31.6464 21.1722 26.1281 24.8249C20.6099 28.4776 14.7068 29.2793 12.944 26.6162C11.1812 23.953 14.2258 18.8329 19.744 15.1802ZM29.6604 15.5594C28.289 13.4886 23.5963 14.1798 19.1789 17.1038C14.7613 20.0281 12.292 24.0784 13.6631 26.1498C15.0345 28.2207 19.7272 27.5295 24.1447 24.6054C28.5623 21.6812 31.0315 17.6308 29.6604 15.5594Z" fill="#121212"/>
<path d="M20.8157 24.3929C24.3262 25.3266 26.8067 27.4572 26.3566 29.1515C25.9059 30.8458 22.6944 31.463 19.1836 30.5292C15.6727 29.5954 13.1918 27.4641 13.6425 25.7697C14.0936 24.0757 17.3052 23.4591 20.8157 24.3929ZM24.274 28.6009C24.6241 27.2831 22.63 25.6096 19.8196 24.862C17.009 24.1145 14.4463 24.5763 14.0958 25.8941C13.7454 27.212 15.7399 28.8864 18.5505 29.634C21.3611 30.3815 23.9235 29.9188 24.274 28.6009Z" fill="#121212"/>
<circle cx="7.05254" cy="27.2508" r="1.85234" fill="#121212"/>
</svg>
