<svg width="370" height="329" viewBox="0 0 370 329" fill="none" xmlns="http://www.w3.org/2000/svg">
<path d="M101.859 111.372C132.226 49.0715 181.217 10.4469 211.284 25.1017C241.351 39.7569 241.109 102.142 210.743 164.444C180.377 226.745 131.386 265.37 101.319 250.715C71.2511 236.06 71.4932 173.674 101.859 111.372ZM193.345 62.0745C169.96 50.6762 131.295 81.8685 106.985 131.744C82.6752 181.62 81.9253 231.292 105.31 242.69C128.696 254.089 167.361 222.896 191.671 173.021C215.98 123.145 216.73 73.4731 193.345 62.0745Z" fill="#121212"/>
<path d="M181.801 103.814C250.779 58.1543 324.561 48.1267 346.597 81.4165C368.633 114.706 330.578 178.707 261.599 224.367C192.621 270.026 118.84 280.054 96.8039 246.764C74.7682 213.475 112.823 149.473 181.801 103.814ZM305.761 108.558C288.622 82.6669 229.963 91.3097 174.742 127.863C119.521 164.416 88.6488 215.037 105.788 240.929C122.926 266.821 181.586 258.178 236.807 221.625C292.028 185.072 322.9 134.45 305.761 108.558Z" fill="#121212"/>
<path d="M195.198 218.927C239.084 230.6 270.093 257.232 264.46 278.412C258.826 299.591 218.683 307.298 174.798 295.626C130.912 283.953 99.9029 257.321 105.536 236.141C111.17 214.961 151.312 207.254 195.198 218.927ZM238.432 271.527C242.814 255.055 217.885 234.125 182.752 224.781C147.62 215.436 115.587 221.214 111.205 237.687C106.824 254.16 131.752 275.089 166.885 284.434C202.018 293.778 234.051 288 238.432 271.527Z" fill="#121212"/>
<circle cx="23.1543" cy="254.709" r="23.1543" fill="#121212"/>
</svg>
