<svg width="370" height="329" viewBox="0 0 370 329" fill="none" xmlns="http://www.w3.org/2000/svg">
<path d="M101.858 111.373C132.225 49.0712 181.216 10.4466 211.284 25.1017C241.351 39.7571 241.109 102.142 210.743 164.444C180.377 226.745 131.385 265.369 101.318 250.714C71.2504 236.059 71.4924 173.674 101.858 111.373ZM193.344 62.0736C169.959 50.6758 131.294 81.8679 106.984 131.743C82.674 181.619 81.925 231.292 105.31 242.69C128.696 254.088 167.361 222.896 191.671 173.021C215.981 123.145 216.73 73.4719 193.344 62.0736Z" fill="white"/>
<path d="M181.801 103.814C250.779 58.1543 324.561 48.1267 346.597 81.4165C368.633 114.706 330.578 178.707 261.599 224.367C192.621 270.026 118.84 280.054 96.8039 246.764C74.7682 213.475 112.823 149.473 181.801 103.814ZM305.761 108.558C288.622 82.6669 229.963 91.3097 174.742 127.863C119.521 164.416 88.6488 215.037 105.788 240.929C122.926 266.821 181.586 258.178 236.807 221.625C292.028 185.072 322.9 134.45 305.761 108.558Z" fill="white"/>
<path d="M195.198 218.926C239.083 230.599 270.093 257.231 264.459 278.411C258.826 299.59 218.683 307.297 174.798 295.625C130.912 283.952 99.9025 257.32 105.536 236.14C111.17 214.96 151.312 207.253 195.198 218.926ZM238.432 271.527C242.814 255.054 217.885 234.124 182.752 224.78C147.619 215.435 115.587 221.214 111.205 237.687C106.824 254.16 131.752 275.089 166.885 284.434C202.018 293.778 234.051 287.999 238.432 271.527Z" fill="white"/>
<circle cx="23.1543" cy="254.709" r="23.1543" fill="white"/>
</svg>
