<svg width="40" height="40" viewBox="0 0 40 40" fill="none" xmlns="http://www.w3.org/2000/svg">
<mask id="mask0_10044_2145" style="mask-type:alpha" maskUnits="userSpaceOnUse" x="0" y="0" width="40" height="40">
<rect width="40" height="40" fill="#D9D9D9"/>
</mask>
<g mask="url(#mask0_10044_2145)">
<path d="M20 21.1796L11.2562 29.9229C11.1004 30.079 10.9091 30.1624 10.6825 30.1729C10.4561 30.1838 10.2543 30.1004 10.077 29.9229C9.89954 29.7457 9.81079 29.5492 9.81079 29.3333C9.81079 29.1175 9.89954 28.921 10.077 28.7438L18.8204 20L10.077 11.2563C9.92093 11.1004 9.8376 10.9092 9.82704 10.6825C9.81621 10.4561 9.89954 10.2543 10.077 10.0771C10.2543 9.89958 10.4508 9.81084 10.6666 9.81084C10.8825 9.81084 11.079 9.89958 11.2562 10.0771L20 18.8204L28.7437 10.0771C28.8995 9.92097 29.0908 9.83764 29.3175 9.82708C29.5438 9.81625 29.7457 9.89958 29.9229 10.0771C30.1004 10.2543 30.1891 10.4508 30.1891 10.6667C30.1891 10.8825 30.1004 11.079 29.9229 11.2563L21.1795 20L29.9229 28.7438C30.079 28.8996 30.1623 29.0908 30.1729 29.3175C30.1837 29.5439 30.1004 29.7457 29.9229 29.9229C29.7457 30.1004 29.5491 30.1892 29.3333 30.1892C29.1175 30.1892 28.9209 30.1004 28.7437 29.9229L20 21.1796Z" fill="white"/>
</g>
</svg>
