<svg width="16" height="16" viewBox="0 0 16 16" fill="none" xmlns="http://www.w3.org/2000/svg">
<mask id="mask0_12933_785" style="mask-type:alpha" maskUnits="userSpaceOnUse" x="0" y="0" width="16" height="16">
<rect width="16" height="16" fill="#D9D9D9"/>
</mask>
<g mask="url(#mask0_12933_785)">
<path d="M6.10883 8.42849C5.96705 8.42849 5.84827 8.38055 5.7525 8.28466C5.65683 8.18888 5.609 8.07016 5.609 7.92849V3.57466L4.06416 5.11949C3.97394 5.21182 3.86122 5.25799 3.726 5.25799C3.59077 5.25799 3.47144 5.21016 3.368 5.11449C3.26455 5.01016 3.21283 4.89088 3.21283 4.75666C3.21283 4.62255 3.26455 4.50377 3.368 4.40033L5.68083 2.08749C5.74316 2.02505 5.80922 1.98105 5.879 1.95549C5.94888 1.92983 6.02372 1.91699 6.1035 1.91699C6.18327 1.91699 6.25905 1.92988 6.33083 1.95566C6.40261 1.98155 6.46927 2.02549 6.53083 2.08749L8.86033 4.41699C8.95944 4.5161 9.00833 4.63105 9.007 4.76183C9.00577 4.8926 8.95344 5.01016 8.85 5.11449C8.74655 5.21016 8.62944 5.25971 8.49866 5.26316C8.36789 5.26649 8.25083 5.21649 8.1475 5.11316L6.609 3.57466V7.93482C6.609 8.07471 6.56105 8.19194 6.46516 8.28649C6.36927 8.38116 6.2505 8.42849 6.10883 8.42849ZM9.8965 14.0747C9.81672 14.0747 9.74094 14.0617 9.66916 14.0358C9.59739 14.01 9.53072 13.9662 9.46916 13.9042L7.13966 11.5747C7.04055 11.4754 6.99166 11.3605 6.993 11.2298C6.99422 11.099 7.04655 10.9815 7.15 10.8772C7.25344 10.7815 7.37055 10.7319 7.50133 10.7285C7.63211 10.725 7.74916 10.775 7.8525 10.8785L9.391 12.417V8.05666C9.391 7.91688 9.43894 7.79966 9.53483 7.70499C9.63072 7.61044 9.7495 7.56316 9.89116 7.56316C10.0329 7.56316 10.1517 7.61105 10.2475 7.70682C10.3432 7.80271 10.391 7.92149 10.391 8.06316V12.417L11.9358 10.872C12.0261 10.7798 12.1388 10.7337 12.274 10.7337C12.4092 10.7337 12.5286 10.7815 12.632 10.8772C12.7354 10.9815 12.7872 11.1007 12.7872 11.2348C12.7872 11.369 12.7354 11.4879 12.632 11.5913L10.3192 13.9042C10.2568 13.9665 10.1908 14.0105 10.121 14.0362C10.0511 14.0618 9.97627 14.0747 9.8965 14.0747Z" fill="#121212"/>
</g>
</svg>
