<svg width="40" height="40" viewBox="0 0 40 40" fill="none" xmlns="http://www.w3.org/2000/svg">
<mask id="mask0_13196_6521" style="mask-type:alpha" maskUnits="userSpaceOnUse" x="0" y="0" width="40" height="40">
<rect width="40" height="40" fill="#D9D9D9"/>
</mask>
<g mask="url(#mask0_13196_6521)">
<path d="M19.9992 25.097C19.8139 25.097 19.6426 25.067 19.4854 25.007C19.3279 24.9467 19.1751 24.8426 19.0271 24.6945L10.9712 16.6387C10.7029 16.3703 10.5733 16.0417 10.5825 15.6528C10.5917 15.2639 10.7305 14.9352 10.9992 14.6666C11.2678 14.398 11.5965 14.2637 11.9854 14.2637C12.3743 14.2637 12.7029 14.398 12.9712 14.6666L19.9992 21.722L27.0546 14.6666C27.3232 14.398 27.6473 14.2684 28.0271 14.2778C28.4065 14.287 28.7305 14.4259 28.9992 14.6945C29.2678 14.9628 29.4021 15.2914 29.4021 15.6803C29.4021 16.0692 29.2678 16.398 28.9992 16.6666L20.9712 24.6945C20.8232 24.8426 20.6704 24.9467 20.5129 25.007C20.3557 25.067 20.1844 25.097 19.9992 25.097Z" fill="#121212"/>
</g>
</svg>
