<svg width="39" height="32" viewBox="0 0 39 32" fill="none" xmlns="http://www.w3.org/2000/svg">
<g clip-path="url(#clip0_12460_2046)">
<path d="M37.6921 7.9097C35.802 4.83523 30.1538 4.69803 23.885 7.17874C23.9402 3.7376 22.9467 1.11496 20.9533 0.275971C17.3892 -1.2246 11.9799 3.5452 8.8707 10.9305C7.01845 15.3297 6.40024 19.6651 6.95694 22.7679C7.4687 26.1026 9.67026 28.1961 10.7072 28.8262C12.1186 29.8654 14.0285 30.773 16.215 31.3605C21.2853 32.7207 25.9281 31.8399 26.585 29.3931C26.913 28.1701 26.1836 26.787 24.7382 25.5404C25.5969 25.1059 26.4588 24.6249 27.3159 24.0982C35.463 19.0902 40.109 11.8429 37.6914 7.91128L37.6921 7.9097ZM17.0122 22.1426C13.3196 21.4724 10.0748 22.0141 8.76267 23.4863C8.83442 20.3093 12.3221 15.8849 17.6517 12.6093C18.8787 11.8555 20.1151 11.216 21.3278 10.6948C21.1969 12.7347 20.6355 15.0916 19.6309 17.4761C18.8874 19.2416 17.9853 20.8234 17.0122 22.1418V22.1426ZM17.595 23.297C19.1901 23.7733 20.5811 24.4538 21.6259 25.2187C18.0555 26.9006 14.6254 27.5779 12.203 27.1537C13.9346 26.7287 15.831 25.3551 17.595 23.297ZM9.59299 13.2504C12.0824 7.33881 16.3467 3.49237 19.1192 4.65939C20.3114 5.1609 21.0329 6.50849 21.2703 8.35128C20.369 8.80231 19.4646 9.30539 18.5641 9.85815C12.96 13.3024 9.01342 17.8065 7.8811 21.5623C7.76282 19.2227 8.32583 16.2594 9.5922 13.2504H9.59299ZM10.1047 26.0679C9.84374 25.9583 9.6056 25.8077 9.39034 25.6208C9.33908 25.5514 9.29098 25.4797 9.24604 25.4063C9.0907 25.154 8.97399 24.8835 8.89435 24.5973C9.41793 22.8562 12.6556 22.1828 16.357 22.9792C14.2295 25.5278 11.8663 26.8091 10.1055 26.0679H10.1047ZM23.5799 28.5904C23.0689 30.4939 19.3644 31.1539 15.3051 30.0642C13.5451 29.5918 12.0082 28.8687 10.8728 28.0455C13.7635 29.0233 18.2037 28.4311 22.9025 26.3999C23.5042 27.1395 23.7652 27.8989 23.5799 28.5896V28.5904ZM24.4591 23.6842C24.0364 23.9436 23.613 24.1896 23.1896 24.4222C21.909 23.6408 20.3398 22.9674 18.5932 22.4982C18.497 22.4722 18.4008 22.4478 18.3046 22.4233C19.6033 20.7351 20.8035 18.6786 21.7773 16.3643C22.7235 14.117 23.3473 11.887 23.6572 9.82897C27.9302 8.49163 31.5692 8.78023 32.8648 10.888C34.7446 13.9459 30.981 19.6753 24.4583 23.6842H24.4591Z" fill="#121212"/>
<path d="M2.6768 30.1698C4.1553 30.1698 5.35385 28.9712 5.35385 27.4928C5.35385 26.0143 4.1553 24.8157 2.6768 24.8157C1.19831 24.8157 -0.000244141 26.0143 -0.000244141 27.4928C-0.000244141 28.9712 1.19831 30.1698 2.6768 30.1698Z" fill="#121212"/>
</g>
<defs>
<clipPath id="clip0_12460_2046">
<rect width="38.3319" height="32" fill="white"/>
</clipPath>
</defs>
</svg>
