<svg width="39" height="32" viewBox="0 0 39 32" fill="none" xmlns="http://www.w3.org/2000/svg">
<g clip-path="url(#clip0_12460_2037)">
<path d="M37.6924 7.90967C35.8023 4.8352 30.1541 4.698 23.8853 7.1787C23.9405 3.73757 22.9469 1.11493 20.9535 0.27594C17.3894 -1.22463 11.9801 3.54517 8.87094 10.9305C7.01869 15.3297 6.40049 19.665 6.95719 22.7679C7.46894 26.1026 9.67051 28.1961 10.7074 28.8261C12.1189 29.8654 14.0287 30.773 16.2153 31.3605C21.2855 32.7207 25.9284 31.8399 26.5852 29.3931C26.9132 28.1701 26.1838 26.787 24.7385 25.5403C25.5972 25.1059 26.459 24.6249 27.3162 24.0981C35.4632 19.0902 40.1092 11.8428 37.6916 7.91125L37.6924 7.90967ZM17.0125 22.1426C13.3198 21.4723 10.075 22.0141 8.76291 23.4862C8.83467 20.3093 12.3223 15.8848 17.652 12.6093C18.8789 11.8555 20.1153 11.216 21.3281 10.6947C21.1972 12.7347 20.6358 15.0916 19.6312 17.4761C18.8876 19.2416 17.9855 20.8234 17.0125 22.1418V22.1426ZM17.5952 23.297C19.1904 23.7733 20.5814 24.4538 21.6262 25.2186C18.0557 26.9006 14.6256 27.5779 12.2033 27.1537C13.9349 26.7287 15.8313 25.355 17.5952 23.297ZM9.59323 13.2504C12.0826 7.33877 16.347 3.49234 19.1194 4.65936C20.3117 5.16086 21.0332 6.50846 21.2705 8.35124C20.3692 8.80228 19.4648 9.30536 18.5643 9.85812C12.9602 13.3024 9.01366 17.8065 7.88134 21.5622C7.76306 19.2227 8.32607 16.2594 9.59244 13.2504H9.59323ZM10.105 26.0679C9.84398 25.9583 9.60585 25.8077 9.39058 25.6208C9.33933 25.5514 9.29123 25.4796 9.24628 25.4063C9.09094 25.154 8.97424 24.8835 8.8946 24.5973C9.41818 22.8562 12.6559 22.1828 16.3572 22.9792C14.2298 25.5277 11.8666 26.8091 10.1058 26.0679H10.105ZM23.5801 28.5904C23.0692 30.4939 19.3647 31.1539 15.3053 30.0641C13.5453 29.5918 12.0085 28.8687 10.873 28.0455C13.7638 29.0233 18.2039 28.4311 22.9028 26.3998C23.5044 27.1395 23.7654 27.8988 23.5801 28.5896V28.5904ZM24.4593 23.6841C24.0367 23.9436 23.6132 24.1896 23.1898 24.4222C21.9092 23.6408 20.3401 22.9674 18.5935 22.4982C18.4973 22.4722 18.4011 22.4477 18.3049 22.4233C19.6036 20.7351 20.8037 18.6786 21.7775 16.3643C22.7238 14.117 23.3475 11.887 23.6574 9.82894C27.9304 8.4916 31.5695 8.7802 32.865 10.8879C34.7449 13.9458 30.9812 19.6753 24.4585 23.6841H24.4593Z" fill="white"/>
<path d="M2.67705 30.1698C4.15554 30.1698 5.3541 28.9712 5.3541 27.4928C5.3541 26.0143 4.15554 24.8157 2.67705 24.8157C1.19856 24.8157 0 26.0143 0 27.4928C0 28.9712 1.19856 30.1698 2.67705 30.1698Z" fill="white"/>
</g>
<defs>
<clipPath id="clip0_12460_2037">
<rect width="38.3319" height="32" fill="white"/>
</clipPath>
</defs>
</svg>
