<svg width="35" height="35" viewBox="0 0 35 35" fill="none" xmlns="http://www.w3.org/2000/svg">
<mask id="mask0_10044_3648" style="mask-type:alpha" maskUnits="userSpaceOnUse" x="0" y="0" width="35" height="35">
<rect width="34.375" height="34.375" fill="#D9D9D9"/>
</mask>
<g mask="url(#mask0_10044_3648)">
<path d="M25.2739 18.2618L7.34808 25.8089C6.96255 25.9632 6.59625 25.9306 6.24915 25.7112C5.90206 25.4916 5.72852 25.1743 5.72852 24.7594V9.61008C5.72852 9.19519 5.90206 8.87794 6.24915 8.65832C6.59625 8.43894 6.96255 8.40636 7.34808 8.56057L25.2739 16.1077C25.742 16.3154 25.9761 16.6744 25.9761 17.1848C25.9761 17.6951 25.742 18.0542 25.2739 18.2618ZM7.16081 24.3462L24.1335 17.1848L7.16081 10.0233V15.587L14.1021 17.1848L7.16081 18.7825V24.3462Z" fill="white"/>
</g>
</svg>
