<svg width="40" height="40" viewBox="0 0 40 40" fill="none" xmlns="http://www.w3.org/2000/svg">
<mask id="mask0_10125_1511" style="mask-type:alpha" maskUnits="userSpaceOnUse" x="0" y="0" width="40" height="40">
<rect width="40" height="40" fill="#D9D9D9"/>
</mask>
<g mask="url(#mask0_10125_1511)">
<path d="M7.49984 11.6667C7.26373 11.6667 7.06581 11.5867 6.90609 11.4267C6.74637 11.2667 6.6665 11.0685 6.6665 10.8321C6.6665 10.5957 6.74637 10.3979 6.90609 10.2387C7.06581 10.0796 7.26373 10 7.49984 10H32.4998C32.7359 10 32.9339 10.08 33.0936 10.24C33.2533 10.4 33.3332 10.5982 33.3332 10.8346C33.3332 11.071 33.2533 11.2688 33.0936 11.4279C32.9339 11.5871 32.7359 11.6667 32.4998 11.6667H7.49984ZM7.49984 30C7.26373 30 7.06581 29.92 6.90609 29.76C6.74637 29.6 6.6665 29.4018 6.6665 29.1654C6.6665 28.929 6.74637 28.7313 6.90609 28.5721C7.06581 28.4129 7.26373 28.3333 7.49984 28.3333H32.4998C32.7359 28.3333 32.9339 28.4133 33.0936 28.5733C33.2533 28.7333 33.3332 28.9315 33.3332 29.1679C33.3332 29.4043 33.2533 29.6021 33.0936 29.7612C32.9339 29.9204 32.7359 30 32.4998 30H7.49984ZM7.49984 20.8333C7.26373 20.8333 7.06581 20.7533 6.90609 20.5933C6.74637 20.4333 6.6665 20.2351 6.6665 19.9987C6.6665 19.7624 6.74637 19.5646 6.90609 19.4054C7.06581 19.2463 7.26373 19.1667 7.49984 19.1667H32.4998C32.7359 19.1667 32.9339 19.2467 33.0936 19.4067C33.2533 19.5667 33.3332 19.7649 33.3332 20.0013C33.3332 20.2376 33.2533 20.4354 33.0936 20.5946C32.9339 20.7537 32.7359 20.8333 32.4998 20.8333H7.49984Z" fill="white"/>
</g>
</svg>
