<svg width="40" height="40" viewBox="0 0 40 40" fill="none" xmlns="http://www.w3.org/2000/svg">
<mask id="mask0_13196_6503" style="mask-type:alpha" maskUnits="userSpaceOnUse" x="0" y="0" width="40" height="40">
<rect width="40" height="40" fill="#D9D9D9"/>
</mask>
<g mask="url(#mask0_13196_6503)">
<path d="M20.0007 36.6671C16.7415 36.6671 13.9822 35.5375 11.7227 33.2783C9.46357 31.0189 8.33398 28.2596 8.33398 25.0004V14.445C8.33398 11.1855 9.46357 8.42624 11.7227 6.16707C13.9822 3.9079 16.7415 2.77832 20.0007 2.77832C23.2598 2.77832 26.0191 3.9079 28.2786 6.16707C30.5377 8.42624 31.6673 11.1855 31.6673 14.445V25.0004C31.6673 28.2596 30.5377 31.0189 28.2786 33.2783C26.0191 35.5375 23.2598 36.6671 20.0007 36.6671ZM21.3894 14.445H28.8894C28.8894 12.2783 28.188 10.3569 26.7852 8.68082C25.3825 7.00499 23.5838 6.0004 21.3894 5.66707V14.445ZM11.1119 14.445H18.6119V5.66707C16.4175 6.0004 14.6188 7.00499 13.2161 8.68082C11.8133 10.3569 11.1119 12.2783 11.1119 14.445ZM19.9948 33.8892C22.4523 33.8892 24.5491 33.0225 26.2852 31.2892C28.0213 29.5558 28.8894 27.4596 28.8894 25.0004V17.2225H11.1119V25.0004C11.1119 27.4596 11.978 29.5558 13.7102 31.2892C15.4422 33.0225 17.537 33.8892 19.9948 33.8892Z" fill="#121212"/>
</g>
</svg>
