<svg width="16" height="12" viewBox="0 0 16 12" fill="none" xmlns="http://www.w3.org/2000/svg">
<path fill-rule="evenodd" clip-rule="evenodd" d="M1.73285 5.82529C2.15749 4.76885 3.74936 1.69925 7.99996 1.69925C12.2506 1.69925 13.8424 4.76885 14.2671 5.82529C14.3132 5.94016 14.3132 6.06049 14.2671 6.17536C13.8424 7.2318 12.2506 10.3014 7.99996 10.3014C3.74936 10.3014 2.15749 7.2318 1.73285 6.17536C1.68668 6.06049 1.68668 5.94016 1.73285 5.82529ZM7.99996 0.666992C3.11019 0.666992 1.2561 4.2451 0.775768 5.4401C0.630245 5.80214 0.630246 6.19851 0.775768 6.56055C1.2561 7.75555 3.11019 11.3337 7.99996 11.3337C12.8897 11.3337 14.7438 7.75555 15.2242 6.56055C15.3697 6.19851 15.3697 5.80214 15.2242 5.4401C14.7438 4.2451 12.8897 0.666992 7.99996 0.666992ZM6.45256 6.00033C6.45256 5.14517 7.14535 4.45194 7.99996 4.45194C8.85456 4.45194 9.54736 5.14517 9.54736 6.00033C9.54736 6.85548 8.85456 7.54871 7.99996 7.54871C7.14535 7.54871 6.45256 6.85548 6.45256 6.00033ZM7.99996 3.41968C6.57562 3.41968 5.42096 4.57507 5.42096 6.00033C5.42096 7.42558 6.57562 8.581 7.99996 8.581C9.4243 8.581 10.579 7.42558 10.579 6.00033C10.579 4.57507 9.4243 3.41968 7.99996 3.41968Z" fill="#121212"/>
</svg>
